<svg width="36" height="36" viewBox="0 0 36 36" fill="none" xmlns="http://www.w3.org/2000/svg">
<path d="M26.75 12.1667C26.75 9.8461 25.8281 7.62051 24.1872 5.97956C22.5462 4.33862 20.3206 3.41675 18 3.41675C15.6794 3.41675 13.4538 4.33862 11.8128 5.97956C10.1719 7.62051 9.25 9.8461 9.25 12.1667C9.25 22.3751 4.875 25.2917 4.875 25.2917H31.125C31.125 25.2917 26.75 22.3751 26.75 12.1667Z" stroke="#FE5E44" stroke-width="2" stroke-linecap="round" stroke-linejoin="round"/>
<path d="M20.5229 31.125C20.2666 31.567 19.8985 31.9339 19.4558 32.1889C19.013 32.4439 18.511 32.5782 18 32.5782C17.4891 32.5782 16.9871 32.4439 16.5443 32.1889C16.1015 31.9339 15.7335 31.567 15.4771 31.125" stroke="#FE5E44" stroke-width="2" stroke-linecap="round" stroke-linejoin="round"/>
</svg>
