<svg width="35" height="36" viewBox="0 0 35 36" fill="none" xmlns="http://www.w3.org/2000/svg">
<g clip-path="url(#clip0_248_476)">
<path d="M7.29166 7.79171C5.01386 9.05118 3.22264 11.0362 2.20294 13.4309C1.18324 15.8257 0.993637 18.4927 1.66429 21.0076C2.33494 23.5226 3.82732 25.741 5.90403 27.3101C7.98075 28.8791 10.5225 29.7086 13.125 29.6667H26.25C27.0955 29.6657 27.9344 29.5177 28.7292 29.2292M32.9729 25.2188C33.4428 24.1094 33.6304 22.901 33.5191 21.7014C33.4078 20.5018 33.001 19.3484 32.3351 18.3445C31.6691 17.3405 30.7648 16.5172 29.7029 15.9481C28.6411 15.379 27.4547 15.0819 26.25 15.0834H24.4125C23.8172 12.7391 22.508 10.6378 20.6661 9.07016C18.8242 7.50257 16.5406 6.54619 14.1312 6.33337L32.9729 25.2188Z" stroke="#FE5E44" stroke-width="2" stroke-linecap="round" stroke-linejoin="round"/>
<path d="M1.45834 1.95837L33.5417 34.0417" stroke="#FE5E44" stroke-width="2" stroke-linecap="round" stroke-linejoin="round"/>
</g>
<defs>
<clipPath id="clip0_248_476">
<rect width="35" height="35" fill="white" transform="translate(0 0.5)"/>
</clipPath>
</defs>
</svg>
