<svg width="25" height="24" viewBox="0 0 25 24" fill="none" xmlns="http://www.w3.org/2000/svg">
<path d="M17.6666 2H7.66663C4.9052 2 2.66663 4.23858 2.66663 7V17C2.66663 19.7614 4.9052 22 7.66663 22H17.6666C20.428 22 22.6666 19.7614 22.6666 17V7C22.6666 4.23858 20.428 2 17.6666 2Z" stroke="#FE5E44" stroke-linecap="round" stroke-linejoin="round"/>
<path d="M16.6666 11.3698C16.7901 12.2021 16.6479 13.052 16.2604 13.7988C15.8729 14.5456 15.2598 15.1512 14.5083 15.5295C13.7567 15.9077 12.9051 16.0394 12.0744 15.9057C11.2438 15.7721 10.4764 15.3799 9.88148 14.785C9.28656 14.1901 8.89437 13.4227 8.76071 12.592C8.62704 11.7614 8.7587 10.9097 9.13696 10.1582C9.51523 9.40667 10.1208 8.79355 10.8676 8.40605C11.6144 8.01856 12.4644 7.8764 13.2966 7.99981C14.1456 8.1257 14.9315 8.52128 15.5383 9.12812C16.1452 9.73496 16.5408 10.5209 16.6666 11.3698Z" stroke="#FE5E44" stroke-linecap="round" stroke-linejoin="round"/>
<path d="M18.1666 6.5H18.1766" stroke="#FE5E44" stroke-linecap="round" stroke-linejoin="round"/>
</svg>
