<svg width="35" height="36" viewBox="0 0 35 36" fill="none" xmlns="http://www.w3.org/2000/svg">
<path d="M4.375 9.25H7.29167H30.625" stroke="#FE5E44" stroke-width="2" stroke-linecap="round" stroke-linejoin="round"/>
<path d="M11.6667 9.25008V6.33342C11.6667 5.55987 11.9739 4.818 12.5209 4.27102C13.0679 3.72404 13.8098 3.41675 14.5833 3.41675H20.4167C21.1902 3.41675 21.9321 3.72404 22.4791 4.27102C23.026 4.818 23.3333 5.55987 23.3333 6.33342V9.25008M27.7083 9.25008V29.6668C27.7083 30.4403 27.401 31.1822 26.8541 31.7291C26.3071 32.2761 25.5652 32.5834 24.7917 32.5834H10.2083C9.43478 32.5834 8.69291 32.2761 8.14593 31.7291C7.59895 31.1822 7.29166 30.4403 7.29166 29.6668V9.25008H27.7083Z" stroke="#FE5E44" stroke-width="2" stroke-linecap="round" stroke-linejoin="round"/>
<path d="M14.5833 16.5417V25.2917" stroke="#FE5E44" stroke-width="2" stroke-linecap="round" stroke-linejoin="round"/>
<path d="M20.4167 16.5417V25.2917" stroke="#FE5E44" stroke-width="2" stroke-linecap="round" stroke-linejoin="round"/>
</svg>
