<svg width="25" height="24" viewBox="0 0 25 24" fill="none" xmlns="http://www.w3.org/2000/svg">
<g clip-path="url(#clip0_270_1112)">
<path d="M23.6666 2.9998C22.709 3.67528 21.6487 4.19191 20.5266 4.5298C19.9244 3.83731 19.124 3.34649 18.2337 3.12373C17.3434 2.90096 16.4061 2.957 15.5487 3.28426C14.6913 3.61151 13.9551 4.1942 13.4396 4.95352C12.9241 5.71283 12.6543 6.61214 12.6666 7.5298V8.5298C10.9093 8.57537 9.1679 8.18561 7.59763 7.39525C6.02737 6.60488 4.67694 5.43844 3.66663 3.9998C3.66663 3.9998 -0.333374 12.9998 8.66663 16.9998C6.60715 18.3978 4.15378 19.0987 1.66663 18.9998C10.6666 23.9998 21.6666 18.9998 21.6666 7.4998C21.6657 7.22126 21.6389 6.9434 21.5866 6.6698C22.6072 5.6633 23.3275 4.39251 23.6666 2.9998V2.9998Z" stroke="#FE5E44" stroke-linecap="round" stroke-linejoin="round"/>
</g>
<defs>
<clipPath id="clip0_270_1112">
<rect width="24" height="24" fill="white" transform="translate(0.666626)"/>
</clipPath>
</defs>
</svg>
