<svg width="21" height="20" viewBox="0 0 21 20" fill="none" xmlns="http://www.w3.org/2000/svg">
<rect x="0.666656" width="20" height="20" rx="3" fill="black" fill-opacity="0.2"/>
<path d="M9.36996 5.81663C9.7368 5.07346 10.7965 5.07346 11.1634 5.81663L12.0118 7.53549C12.1574 7.83034 12.4385 8.0348 12.7639 8.08235L14.6629 8.35992C15.4828 8.47976 15.8096 9.4876 15.216 10.0658L13.8435 11.4026C13.6076 11.6323 13.4999 11.9635 13.5556 12.288L13.8793 14.1754C14.0194 14.9924 13.1619 15.6154 12.4282 15.2295L10.7321 14.3376C10.4407 14.1843 10.0926 14.1843 9.80122 14.3376L8.1051 15.2295C7.37147 15.6154 6.51392 14.9924 6.65404 14.1754L6.97776 12.288C7.03342 11.9635 6.92575 11.6323 6.68988 11.4026L5.31735 10.0658C4.72375 9.4876 5.05054 8.47976 5.87045 8.35992L7.76944 8.08235C8.09479 8.0348 8.37597 7.83034 8.52151 7.53549L9.36996 5.81663Z" fill="white"/>
</svg>
