<svg width="25" height="24" viewBox="0 0 25 24" fill="none" xmlns="http://www.w3.org/2000/svg">
<g clip-path="url(#clip0_247_202)">
<path d="M1.5 1L23.5 23" stroke="#FE5E44" stroke-width="2" stroke-linecap="round" stroke-linejoin="round"/>
<path d="M17.22 11.06C18.0391 11.4597 18.805 11.9603 19.5 12.55" stroke="#FE5E44" stroke-width="2" stroke-linecap="round" stroke-linejoin="round"/>
<path d="M5.5 12.55C6.98208 11.3108 8.76587 10.4862 10.67 10.16" stroke="#FE5E44" stroke-width="2" stroke-linecap="round" stroke-linejoin="round"/>
<path d="M11.21 5.04998C13.3524 4.87735 15.5077 5.13815 17.5471 5.8168C19.5865 6.49546 21.4682 7.57806 23.08 8.99998" stroke="#FE5E44" stroke-width="2" stroke-linecap="round" stroke-linejoin="round"/>
<path d="M1.91998 9C3.30715 7.77385 4.89768 6.79922 6.61998 6.12" stroke="#FE5E44" stroke-width="2" stroke-linecap="round" stroke-linejoin="round"/>
<path d="M9.03003 16.11C10.0452 15.3888 11.2597 15.0013 12.505 15.0013C13.7504 15.0013 14.9648 15.3888 15.98 16.11" stroke="#FE5E44" stroke-width="2" stroke-linecap="round" stroke-linejoin="round"/>
<path d="M12.5 20H12.51" stroke="#FE5E44" stroke-width="2" stroke-linecap="round" stroke-linejoin="round"/>
</g>
<defs>
<clipPath id="clip0_247_202">
<rect width="24" height="24" fill="white" transform="translate(0.5)"/>
</clipPath>
</defs>
</svg>
